<svg width="50" height="50" viewBox="0 0 50 50" xmlns="http://www.w3.org/2000/svg"><title>flickr-logo</title><path d="M24.875.098C11.19.098.098 11.19.098 24.875c0 13.684 11.093 24.777 24.777 24.777 13.684 0 24.777-11.093 24.777-24.777 0-6.57-2.61-12.873-7.257-17.52S31.445.098 24.875.098zm-10.442 33.64c-4.51 0-8.164-3.967-8.164-8.863 0-4.896 3.655-8.865 8.163-8.865 4.508 0 8.165 3.97 8.165 8.865 0 4.896-3.656 8.864-8.165 8.864zm20.648-.21c-4.737-.1-8.497-4.022-8.4-8.76-.096-4.738 3.664-8.658 8.4-8.76 4.738.103 8.498 4.023 8.4 8.76.1 4.738-3.66 8.66-8.4 8.76z" fill="#000" fill-rule="evenodd"/></svg>