<svg width="50" height="50" viewBox="0 0 50 50" xmlns="http://www.w3.org/2000/svg"><title>instagram-logo</title><g fill="#000" fill-rule="evenodd"><path d="M24.825 29.8c2.738-.003 4.957-2.225 4.956-4.963 0-2.738-2.22-4.96-4.957-4.96-2.738-.003-4.96 2.214-4.966 4.952.004 2.742 2.225 4.964 4.968 4.97zM35.678 18.746V13.96h-.623l-4.164.013.017 4.787"/><path d="M24.826 0C11.116 0 0 11.115 0 24.826c0 13.71 11.115 24.826 24.826 24.826 13.71 0 24.826-11.115 24.826-24.826C49.637 11.12 38.532.016 24.826 0zm14.12 21.93v11.56c-.004 3.012-2.445 5.454-5.458 5.457H16.164c-3.013-.003-5.455-2.445-5.457-5.458V16.164c.003-3.013 2.444-5.454 5.457-5.457h17.323c3.013.003 5.455 2.444 5.458 5.457v5.764z"/><path d="M32.55 24.826c.003 3.12-1.87 5.934-4.747 7.136-2.878 1.202-6.197.555-8.412-1.64-2.215-2.195-2.893-5.507-1.718-8.396h-4.215v11.56c.003 1.492 1.214 2.7 2.706 2.7h17.323c1.492 0 2.702-1.208 2.706-2.7V21.93h-4.217c.38.918.573 1.902.574 2.896z"/></g></svg>