<?xml version="1.0" encoding="UTF-8" standalone="no"?>
<svg width="50px" height="49px" viewBox="0 0 50 49" version="1.1" xmlns="http://www.w3.org/2000/svg" xmlns:xlink="http://www.w3.org/1999/xlink">
    <!-- Generator: Sketch 40.3 (33839) - http://www.bohemiancoding.com/sketch -->
    <title>facebook-circular-logo</title>
    <desc>Created with Sketch.</desc>
    <defs></defs>
    <g id="Page-1" stroke="none" stroke-width="1" fill="none" fill-rule="evenodd">
        <g id="facebook-circular-logo" transform="translate(-0.753000, -0.349000)" fill="#000000">
            <path d="M25.582,0.349 C12.8029025,0.33810366 2.14931614,10.1256856 1.0793226,22.8599137 C0.00932904978,35.5941418 8.88026518,47.0222718 21.482,49.144 L21.482,30.059 L15.552,30.059 L15.552,23.192 L21.482,23.192 L21.482,18.128 C21.482,12.252 25.071,9.05 30.313,9.05 C32.0815641,9.04392061 33.8491575,9.13371903 35.608,9.319 L35.608,15.461 L31.972,15.461 C29.122,15.461 28.572,16.815 28.572,18.803 L28.572,23.186 L35.372,23.186 L34.485,30.054 L28.572,30.054 L28.572,49.308 C41.4693727,47.733805 50.9115284,36.3901843 50.1194966,23.42126 C49.3274648,10.4523356 38.5750853,0.342025636 25.582,0.349 L25.582,0.349 Z" id="path"></path>
        </g>
    </g>
</svg>