<?xml version="1.0" encoding="UTF-8" standalone="no"?>
<svg width="50px" height="50px" viewBox="0 0 50 50" version="1.1" xmlns="http://www.w3.org/2000/svg" xmlns:xlink="http://www.w3.org/1999/xlink">
    <!-- Generator: Sketch 41.1 (35376) - http://www.bohemiancoding.com/sketch -->
    <title>facebook-logo-white</title>
    <desc>Created with Sketch.</desc>
    <defs></defs>
    <g id="Page-1" stroke="none" stroke-width="1" fill="none" fill-rule="evenodd">
        <g id="facebook-logo-white" fill="#FFFFFF">
            <g id="facebook-circular-logo">
                <g id="Page-1">
                    <g id="facebook-circular-logo" transform="translate(0.247000, 0.651000)">
                        <path d="M24.5900474,9.08908616e-06 C11.8109499,-0.0108872509 1.15736349,9.77669469 0.0873699523,22.5109228 C-0.982623598,35.2451509 7.88831253,46.6732809 20.4900474,48.7950091 L20.4900474,29.7100091 L14.5600474,29.7100091 L14.5600474,22.8430091 L20.4900474,22.8430091 L20.4900474,17.7790091 C20.4900474,11.9030091 24.0790474,8.70100909 29.3210474,8.70100909 C31.0896115,8.6949297 32.8572049,8.78472812 34.6160474,8.97000909 L34.6160474,15.1120091 L30.9800474,15.1120091 C28.1300474,15.1120091 27.5800474,16.4660091 27.5800474,18.4540091 L27.5800474,22.8370091 L34.3800474,22.8370091 L33.4930474,29.7050091 L27.5800474,29.7050091 L27.5800474,48.9590091 C40.4774201,47.3848141 49.9195758,36.0411934 49.127544,23.0722691 C48.3355122,10.1033447 37.5831327,-0.00696527491 24.5900474,9.08908616e-06 L24.5900474,9.08908616e-06 Z" id="path"></path>
                    </g>
                </g>
            </g>
        </g>
    </g>
</svg>