<?xml version="1.0" encoding="UTF-8" standalone="no"?>
<svg width="50px" height="50px" viewBox="0 0 50 50" version="1.1" xmlns="http://www.w3.org/2000/svg" xmlns:xlink="http://www.w3.org/1999/xlink">
    <!-- Generator: Sketch 40.3 (33839) - http://www.bohemiancoding.com/sketch -->
    <title>flickr-logo</title>
    <desc>Created with Sketch.</desc>
    <defs></defs>
    <g id="Page-1" stroke="none" stroke-width="1" fill="none" fill-rule="evenodd">
        <g id="flickr-logo" transform="translate(0.098000, 0.098000)" fill="#000000">
            <path d="M24.777,0 C11.0930408,-8.37900845e-16 1.67580169e-15,11.0930408 0,24.777 C-1.67580169e-15,38.4609592 11.0930408,49.554 24.777,49.554 C38.4609592,49.554 49.554,38.4609592 49.554,24.777 C49.554,18.205731 46.9435736,11.9036041 42.2969847,7.25701528 C37.6503959,2.61042643 31.348269,4.02374175e-16 24.777,0 L24.777,0 Z M14.335,33.641 C9.826,33.641 6.171,29.673 6.171,24.777 C6.171,19.881 9.827,15.912 14.335,15.912 C18.843,15.912 22.5,19.881 22.5,24.777 C22.5,29.673 18.844,33.641 14.335,33.641 L14.335,33.641 Z M34.983,33.43 C30.2451443,33.3288865 26.4853209,29.4079277 26.583,24.67 C26.4858808,19.9324593 30.2455429,16.0121164 34.983,15.911 C39.7202171,16.0126627 43.4795633,19.9326762 43.383,24.67 C43.4806829,29.4080978 39.7210142,33.3293428 34.983,33.431 L34.983,33.43 Z" id="path"></path>
        </g>
    </g>
</svg>