<svg xmlns="http://www.w3.org/2000/svg" viewBox="-385.902 1480.098 49.554 49.554">
  <defs>
    <style>
      .cls-1 {
        fill: #fff;
      }
    </style>
  </defs>
  <g id="flickr-logo" transform="translate(-385.902 1480.098)">
    <path id="path" class="cls-1" d="M24.777,0A24.777,24.777,0,1,0,49.554,24.777,24.777,24.777,0,0,0,24.777,0ZM14.335,33.641c-4.509,0-8.164-3.968-8.164-8.864s3.656-8.865,8.164-8.865S22.5,19.881,22.5,24.777,18.844,33.641,14.335,33.641Zm20.648-.211a8.585,8.585,0,0,1-8.4-8.76,8.585,8.585,0,0,1,8.4-8.759,8.586,8.586,0,0,1,8.4,8.759A8.586,8.586,0,0,1,34.983,33.431Z"/>
  </g>
</svg>
