<?xml version="1.0" encoding="UTF-8" standalone="no"?>
<svg width="50px" height="50px" viewBox="0 0 50 50" version="1.1" xmlns="http://www.w3.org/2000/svg" xmlns:xlink="http://www.w3.org/1999/xlink">
    <!-- Generator: Sketch 40.3 (33839) - http://www.bohemiancoding.com/sketch -->
    <title>instagram-logo</title>
    <desc>Created with Sketch.</desc>
    <defs></defs>
    <g id="Page-1" stroke="none" stroke-width="1" fill="none" fill-rule="evenodd">
        <g id="instagram-logo" fill="#000000">
            <g id="group">
                <g id="group-2">
                    <path d="M24.825,29.8 C27.563481,29.7966841 29.781546,27.5754823 29.7809917,24.8369994 C29.7804375,22.0985165 27.5614736,19.8782127 24.8229915,19.8760052 C22.0845095,19.8737978 19.861969,22.0905215 19.857,24.829 C19.8608511,27.57164 22.0823628,29.7944932 24.825,29.8 L24.825,29.8 Z" id="path"></path>
                    <polygon id="path-2" points="35.678 18.746 35.678 13.96 35.055 13.96 30.891 13.973 30.907 18.76"></polygon>
                    <path d="M24.826,0 C11.1149788,-8.39557911e-16 1.67911582e-15,11.1149788 0,24.826 C-1.67911582e-15,38.5370212 11.1149788,49.652 24.826,49.652 C38.5370212,49.652 49.652,38.5370212 49.652,24.826 C49.6365693,11.1213755 38.5306245,0.015430668 24.826,0 L24.826,0 Z M38.945,21.929 L38.945,33.489 C38.9422443,36.5018376 36.5008371,38.9436923 33.488,38.947 L16.164,38.947 C13.1509346,38.9442426 10.7092053,36.5020658 10.707,33.489 L10.707,16.165 C10.7097566,13.1523247 13.1513247,10.7107566 16.164,10.708 L33.487,10.708 C36.4998376,10.7107557 38.9416923,13.1521629 38.945,16.165 L38.945,21.929 Z" id="path-3"></path>
                    <path d="M32.549,24.826 C32.5528183,27.944773 30.6804206,30.7597541 27.8025966,31.9617893 C24.9247726,33.1638245 21.6064041,32.5169691 19.3907537,30.3220538 C17.1751032,28.1271386 16.4970761,24.8149987 17.672,21.926 L13.457,21.926 L13.457,33.486 C13.4603085,34.9781389 14.6708575,36.1860037 16.163,36.186 L33.486,36.186 C34.9779151,36.1854539 36.1881422,34.9779102 36.192,33.486 L36.192,21.929 L31.975,21.929 C32.3535014,22.8479711 32.5484994,23.8321333 32.549,24.826 L32.549,24.826 Z" id="path-4"></path>
                </g>
            </g>
        </g>
    </g>
</svg>