<svg xmlns="http://www.w3.org/2000/svg" viewBox="-386 1593 49.652 49.652">
  <defs>
    <style>
      .cls-1 {
        fill: #fff;
      }
    </style>
  </defs>
  <g id="instagram-logo" transform="translate(-386 1593)">
    <g id="group">
      <g id="group-2" data-name="group">
        <path id="path" class="cls-1" d="M24.825,29.8a4.962,4.962,0,1,0-4.968-4.971A4.978,4.978,0,0,0,24.825,29.8Z"/>
        <path id="path-2" data-name="path" class="cls-1" d="M35.678,18.746V13.96l-.623,0-4.164.013.016,4.787Z"/>
        <path id="path-3" data-name="path" class="cls-1" d="M24.826,0A24.826,24.826,0,1,0,49.652,24.826,24.854,24.854,0,0,0,24.826,0ZM38.945,21.929v11.56a5.463,5.463,0,0,1-5.457,5.458H16.164a5.462,5.462,0,0,1-5.457-5.458V16.165a5.462,5.462,0,0,1,5.457-5.457H33.487a5.463,5.463,0,0,1,5.458,5.457Z"/>
        <path id="path-4" data-name="path" class="cls-1" d="M32.549,24.826a7.723,7.723,0,1,1-14.877-2.9H13.457v11.56a2.706,2.706,0,0,0,2.706,2.7H33.486a2.707,2.707,0,0,0,2.706-2.7V21.929H31.975A7.617,7.617,0,0,1,32.549,24.826Z"/>
      </g>
    </g>
  </g>
</svg>
